PathFileType	4	(X/Y/Z)	/tmp/tmp6q9gruk8//results/MarkerData/Run_5.trc
DataRate	CameraRate	NumFrames	NumMarkers	Units	OrigDataRate	OrigDataStartFrame	OrigNumFrames
100	100	9	42	m	100	147	393
Frame#	Time	C7			CLAV			LACR			LASI			LCAL			LFAradius			LFAsuperior			LFAulna			LLEL			LMEL			LMT5			LPSI			LTB1			LTB2			LTB3			LTH1			LTH2			LTH3			LTOE			LUA1			LUA2			LUA3			RACR			RASI			RCAL			RFAradius			RFAsuperior			RFAulna			RLEL			RMEL			RMT5			RPSI			RTB1			RTB2			RTB3			RTH1			RTH2			RTH3			RTOE			RUA1			RUA2			RUA3		
		X1	Y1	Z1	X2	Y2	Z2	X3	Y3	Z3	X4	Y4	Z4	X5	Y5	Z5	X6	Y6	Z6	X7	Y7	Z7	X8	Y8	Z8	X9	Y9	Z9	X10	Y10	Z10	X11	Y11	Z11	X12	Y12	Z12	X13	Y13	Z13	X14	Y14	Z14	X15	Y15	Z15	X16	Y16	Z16	X17	Y17	Z17	X18	Y18	Z18	X19	Y19	Z19	X20	Y20	Z20	X21	Y21	Z21	X22	Y22	Z22	X23	Y23	Z23	X24	Y24	Z24	X25	Y25	Z25	X26	Y26	Z26	X27	Y27	Z27	X28	Y28	Z28	X29	Y29	Z29	X30	Y30	Z30	X31	Y31	Z31	X32	Y32	Z32	X33	Y33	Z33	X34	Y34	Z34	X35	Y35	Z35	X36	Y36	Z36	X37	Y37	Z37	X38	Y38	Z38	X39	Y39	Z39	X40	Y40	Z40	X41	Y41	Z41	X42	Y42	Z42

148	1.64	0.928489	1.54086	-0.38002	1.04483	1.47497	-0.330524	0.996927	1.51698	-0.533596	1.03414	1.01854	-0.460534	0.475927	0.189202	-0.341794	1.11581	1.2174	-0.537886	0.963435	1.16082	-0.636022	1.13251	1.15574	-0.570017	0.885403	1.18846	-0.648753	0.868365	1.16848	-0.560463	0.609961	0.0448273	-0.418813	0.867771	1.08885	-0.432236	0.808832	0.391223	-0.389486	0.678389	0.347805	-0.4376	0.660278	0.231644	-0.370445	0.950819	0.886537	-0.529267	0.835653	0.756147	-0.487145	0.852097	0.615479	-0.470714	0.674891	0.062979	-0.326879	0.914768	1.40646	-0.593498	0.954471	1.33019	-0.607364	0.89251	1.25504	-0.631261	0.970691	1.51179	-0.209303	1.01039	1.03913	-0.237615	0.796393	0.453059	-0.272693	0.874471	1.11654	-0.0787886	0.745351	1.2401	-0.0370866	0.823758	1.0984	-0.0359222	0.690793	1.33184	-0.0700349	0.698239	1.28712	-0.148658	0.882392	0.275606	-0.193896	0.854687	1.09026	-0.317801	1.14882	0.511448	-0.262894	1.06162	0.552687	-0.197548	0.974906	0.430919	-0.271893	0.962141	0.934546	-0.180361	1.00742	0.794918	-0.199082	1.14839	0.712411	-0.195077	0.931829	0.251359	-0.286866	0.834049	1.45526	-0.174253	0.848242	1.40052	-0.119101	0.749121	1.36617	-0.0948518
149	1.65	0.927965	1.54666	-0.379721	1.04344	1.48193	-0.328183	0.999036	1.52493	-0.53166	1.04139	1.02335	-0.463433	0.446358	0.211682	-0.348796	1.11821	1.24214	-0.534314	0.971765	1.17322	-0.633349	1.13906	1.18036	-0.563619	0.892684	1.19565	-0.647976	0.874777	1.17593	-0.559498	0.56351	0.0496743	-0.420749	0.875049	1.09362	-0.435042	0.777655	0.404506	-0.395051	0.646216	0.364236	-0.442205	0.628437	0.246186	-0.376923	0.953728	0.890106	-0.528787	0.827725	0.768806	-0.48843	0.833626	0.627928	-0.472963	0.628447	0.0630054	-0.328689	0.918717	1.41425	-0.593451	0.959922	1.33853	-0.606514	0.898841	1.26309	-0.631388	0.967121	1.5186	-0.209183	1.01242	1.04774	-0.235609	0.828103	0.418284	-0.274196	0.867179	1.13149	-0.081925	0.735817	1.25279	-0.0432839	0.815011	1.11126	-0.0420155	0.681946	1.34407	-0.0767094	0.690423	1.29979	-0.155685	0.933529	0.25249	-0.193218	0.858418	1.09674	-0.320806	1.17117	0.517345	-0.262729	1.07952	0.549387	-0.199444	1.00776	0.416894	-0.271871	0.964137	0.944366	-0.17806	1.01397	0.804735	-0.199461	1.15539	0.725405	-0.196172	0.98589	0.2334	-0.285732	0.829582	1.46588	-0.177475	0.841843	1.40992	-0.121721	0.74189	1.3774	-0.0996477
150	1.66	0.927705	1.5517	-0.379678	1.04231	1.48809	-0.325975	1.00104	1.53231	-0.529902	1.04812	1.02844	-0.465488	0.422545	0.236001	-0.357299	1.1186	1.26562	-0.531229	0.978973	1.18515	-0.631299	1.14339	1.20371	-0.557388	0.899403	1.20255	-0.647913	0.879979	1.18298	-0.558965	0.520197	0.0578256	-0.424642	0.881816	1.09868	-0.437004	0.750742	0.419442	-0.400255	0.618732	0.3815	-0.447078	0.601192	0.261809	-0.383733	0.955344	0.893976	-0.529092	0.821152	0.78241	-0.488652	0.817233	0.641431	-0.474675	0.583708	0.0652535	-0.331425	0.922494	1.42162	-0.593434	0.964882	1.34648	-0.606114	0.904559	1.27079	-0.632347	0.963922	1.52479	-0.209261	1.01448	1.05499	-0.233784	0.862982	0.383538	-0.27619	0.861162	1.1459	-0.0852355	0.727294	1.26462	-0.0495798	0.807951	1.12353	-0.0480417	0.673973	1.35534	-0.0835102	0.683652	1.31168	-0.1628	0.985782	0.231235	-0.193419	0.862456	1.1034	-0.32295	1.1916	0.52227	-0.263007	1.09661	0.54415	-0.20102	1.04194	0.403112	-0.272682	0.965691	0.953436	-0.175698	1.01942	0.813537	-0.199568	1.16019	0.735925	-0.197733	1.04077	0.217543	-0.285653	0.825806	1.47567	-0.181102	0.835959	1.419	-0.124389	0.735282	1.38801	-0.104432
151	1.67	0.927721	1.55589	-0.379857	1.04151	1.49319	-0.324021	1.00304	1.53885	-0.528349	1.05386	1.03333	-0.466759	0.404796	0.261899	-0.367221	1.11735	1.28715	-0.528786	0.985201	1.19635	-0.629922	1.14595	1.22521	-0.551576	0.90563	1.20891	-0.648824	0.884257	1.18928	-0.559327	0.479414	0.0697246	-0.429497	0.887579	1.10354	-0.438182	0.728323	0.434564	-0.403695	0.596434	0.398467	-0.451888	0.578028	0.27767	-0.389941	0.955792	0.898372	-0.529676	0.815981	0.795733	-0.487923	0.803388	0.654709	-0.475304	0.540165	0.0707633	-0.334529	0.926194	1.42822	-0.593537	0.969385	1.35364	-0.606109	0.909507	1.27777	-0.633938	0.961273	1.53015	-0.20945	1.01631	1.0605	-0.232552	0.900454	0.349382	-0.278663	0.856346	1.15946	-0.0886074	0.719834	1.27533	-0.0558284	0.802462	1.1349	-0.0539175	0.666926	1.36543	-0.0902991	0.677975	1.32246	-0.169871	1.03884	0.212127	-0.194871	0.866399	1.10977	-0.324187	1.20991	0.526105	-0.264193	1.11318	0.536873	-0.202243	1.07627	0.389928	-0.274591	0.967339	0.96126	-0.173613	1.02253	0.820554	-0.200075	1.16229	0.743596	-0.200321	1.0959	0.204165	-0.287256	0.822834	1.48435	-0.184951	0.830792	1.42742	-0.127091	0.729321	1.3978	-0.109212
152	1.68	0.928012	1.55935	-0.38007	1.04113	1.49736	-0.322325	1.00521	1.5444	-0.526989	1.05833	1.03771	-0.467438	0.392257	0.288756	-0.378118	1.11497	1.30608	-0.527101	0.990531	1.2066	-0.62923	1.14709	1.24431	-0.54628	0.911334	1.2146	-0.650715	0.888062	1.19465	-0.560972	0.440108	0.0855478	-0.434049	0.89208	1.10789	-0.438769	0.710445	0.448272	-0.405088	0.57927	0.414196	-0.456459	0.557944	0.293114	-0.395095	0.955854	0.903104	-0.530038	0.812443	0.807355	-0.486778	0.792846	0.666503	-0.475049	0.49726	0.0806965	-0.337406	0.929958	1.43373	-0.593873	0.973563	1.35975	-0.606411	0.91378	1.28385	-0.635945	0.959292	1.53456	-0.209573	1.01778	1.06437	-0.231899	0.939648	0.316218	-0.281616	0.852729	1.17184	-0.0919538	0.713595	1.2847	-0.0618527	0.798484	1.14509	-0.059605	0.660935	1.37419	-0.0968774	0.673379	1.33175	-0.176644	1.09221	0.195334	-0.197987	0.869789	1.11537	-0.324739	1.22578	0.528507	-0.266271	1.12917	0.5275	-0.203131	1.10959	0.377419	-0.277428	0.968943	0.967148	-0.172169	1.02261	0.825166	-0.201352	1.16154	0.74814	-0.20368	1.15032	0.193853	-0.290932	0.820691	1.49171	-0.188647	0.826563	1.43476	-0.129743	0.724147	1.4066	-0.11396
153	1.69	0.92863	1.56233	-0.380126	1.04128	1.50086	-0.320826	1.00771	1.5489	-0.525842	1.06145	1.04152	-0.467717	0.382247	0.316	-0.389353	1.11209	1.32182	-0.525977	0.995064	1.21556	-0.629165	1.14725	1.26045	-0.541572	0.916444	1.21953	-0.653311	0.89166	1.19911	-0.563778	0.402152	0.105451	-0.43771	0.895229	1.11167	-0.438957	0.69689	0.459307	-0.404938	0.566737	0.428217	-0.460674	0.539633	0.308183	-0.399129	0.956458	0.907545	-0.529902	0.810888	0.816094	-0.485865	0.786433	0.675577	-0.474468	0.455142	0.0961905	-0.339652	0.933869	1.43807	-0.59447	0.977516	1.36475	-0.606957	0.917631	1.28901	-0.638182	0.957988	1.53806	-0.209497	1.01879	1.0671	-0.231501	0.979522	0.284317	-0.285023	0.850382	1.18271	-0.0951677	0.708763	1.29253	-0.0674761	0.796022	1.15381	-0.0650801	0.656134	1.38145	-0.103044	0.669876	1.33928	-0.182846	1.14499	0.180803	-0.2032	0.872197	1.11991	-0.324913	1.23876	0.52896	-0.268698	1.14403	0.516012	-0.203701	1.14104	0.365408	-0.280719	0.969661	0.970606	-0.17161	1.02016	0.827326	-0.203012	1.15841	0.749536	-0.206744	1.20262	0.187135	-0.296785	0.819298	1.49755	-0.19177	0.823387	1.44061	-0.132186	0.719927	1.4142	-0.11859
154	1.7	0.929666	1.56503	-0.379975	1.04195	1.5039	-0.319489	1.01055	1.55239	-0.524945	1.06322	1.04482	-0.467745	0.371366	0.343659	-0.400246	1.10936	1.33387	-0.524918	0.998948	1.22282	-0.629585	1.14694	1.27315	-0.537646	0.920921	1.22369	-0.656218	0.894951	1.20275	-0.567146	0.36705	0.129481	-0.440881	0.897031	1.11493	-0.438891	0.687101	0.467196	-0.403884	0.558003	0.440764	-0.464436	0.522064	0.323709	-0.402172	0.95821	0.910973	-0.529182	0.811568	0.821314	-0.485637	0.784749	0.680875	-0.473972	0.415211	0.117863	-0.341277	0.937835	1.44149	-0.595194	0.98124	1.3688	-0.607682	0.921296	1.2933	-0.640501	0.957303	1.54073	-0.209236	1.01912	1.06924	-0.23107	1.01895	0.254098	-0.288811	0.849424	1.19178	-0.0981624	0.70551	1.29863	-0.072555	0.795142	1.1608	-0.0702956	0.652626	1.38702	-0.108625	0.667542	1.34489	-0.188195	1.19589	0.168211	-0.210844	0.873386	1.12323	-0.32497	1.24847	0.52704	-0.270792	1.15698	0.502523	-0.204042	1.16996	0.353664	-0.284113	0.968771	0.971828	-0.171783	1.01639	0.827576	-0.204119	1.15369	0.748075	-0.208438	1.25111	0.183956	-0.304696	0.818491	1.50175	-0.194036	0.821229	1.4448	-0.134278	0.716786	1.42032	-0.122969
155	1.71	0.931166	1.56748	-0.379723	1.04304	1.5064	-0.318346	1.01358	1.55504	-0.52426	1.06376	1.04751	-0.467663	0.358011	0.372461	-0.410099	1.10733	1.34186	-0.523438	1.0023	1.2281	-0.630301	1.14672	1.282	-0.534753	0.924746	1.22715	-0.65908	0.897645	1.20569	-0.57042	0.336904	0.157426	-0.444595	0.897601	1.11759	-0.438714	0.680435	0.472284	-0.40245	0.552217	0.452726	-0.467673	0.505188	0.340729	-0.404555	0.961242	0.91288	-0.52788	0.814407	0.822986	-0.486167	0.787778	0.681944	-0.473543	0.37966	0.145176	-0.34294	0.941652	1.44433	-0.595856	0.984682	1.37207	-0.608467	0.924875	1.29682	-0.642789	0.957194	1.54269	-0.208898	1.01857	1.07119	-0.230594	1.05671	0.226443	-0.292751	0.849975	1.19886	-0.10091	0.703953	1.30283	-0.076977	0.795953	1.16587	-0.075144	0.65046	1.39065	-0.113458	0.666467	1.3484	-0.192398	1.24334	0.157021	-0.220956	0.873423	1.12521	-0.325087	1.25472	0.522694	-0.27231	1.16746	0.487483	-0.20443	1.19576	0.342154	-0.28762	0.966488	0.971798	-0.172081	1.01213	0.826609	-0.204025	1.14772	0.744161	-0.208532	1.29428	0.183285	-0.314421	0.818091	1.50436	-0.195436	0.819971	1.44739	-0.135981	0.714765	1.42471	-0.126926
156	1.72	0.933064	1.56951	-0.379496	1.04439	1.50812	-0.317452	1.01661	1.55699	-0.523619	1.06336	1.04927	-0.46765	0.343955	0.403267	-0.418178	1.10637	1.34566	-0.52135	1.00508	1.23135	-0.631171	1.14694	1.28663	-0.532953	0.927858	1.23009	-0.661676	0.899519	1.20813	-0.573289	0.312555	0.189011	-0.449938	0.897234	1.11932	-0.438608	0.676568	0.475279	-0.401151	0.548933	0.4652	-0.470287	0.490125	0.359667	-0.406876	0.965273	0.91311	-0.526087	0.818961	0.821548	-0.48715	0.794606	0.679289	-0.472841	0.35019	0.176344	-0.346028	0.945171	1.44686	-0.596349	0.987799	1.37467	-0.609154	0.928292	1.29972	-0.644949	0.957672	1.54398	-0.208558	1.01722	1.07309	-0.230297	1.09139	0.202625	-0.296362	0.852099	1.20389	-0.103408	0.704114	1.30499	-0.0806347	0.798531	1.16902	-0.0794527	0.649624	1.39216	-0.117375	0.666681	1.3497	-0.195365	1.28567	0.146721	-0.233087	0.872616	1.12576	-0.325381	1.25759	0.516341	-0.273627	1.17531	0.471777	-0.205281	1.21782	0.331133	-0.291381	0.963854	0.971682	-0.171861	1.00741	0.824809	-0.202968	1.14012	0.738061	-0.207715	1.33088	0.183333	-0.325654	0.817998	1.50559	-0.196212	0.8195	1.44863	-0.137338	0.713841	1.42714	-0.130251
